PathFileType	4	(X/Y/Z)	Walk1_0-155.trc
DataRate	CameraRate	NumFrames	NumMarkers	Units	OrigDataRate	OrigDataStartFrame	OrigNumFrames
30	30	8	22	m	30	0	155
Frame#	Time	Hip			RHip			RKnee			RAnkle			RBigToe			RSmallToe			RHeel			LHip			LKnee			LAnkle			LBigToe			LSmallToe			LHeel			Neck			Head			Nose			RShoulder			RElbow			RWrist			LShoulder			LElbow			LWrist		
		X1	Y1	Z1	X2	Y2	Z2	X3	Y3	Z3	X4	Y4	Z4	X5	Y5	Z5	X6	Y6	Z6	X7	Y7	Z7	X8	Y8	Z8	X9	Y9	Z9	X10	Y10	Z10	X11	Y11	Z11	X12	Y12	Z12	X13	Y13	Z13	X14	Y14	Z14	X15	Y15	Z15	X16	Y16	Z16	X17	Y17	Z17	X18	Y18	Z18	X19	Y19	Z19	X20	Y20	Z20	X21	Y21	Z21	X22	Y22	Z22
1	0.03333333333333333	-2.5824054508722307	0.8353325971972996	0.3903187659254996	-2.5635443031430554	0.7994562213833409	0.47213396996501306	-2.5975521640552364	0.4520618130571952	0.5022829578714189	-2.6331698675054156	0.07006929356426304	0.5125561467568374	-2.439136021224933	-0.01750354872526765	0.5466387850628309	-2.4487655356108067	-0.020507684515596206	0.6099682382011344	-2.607515592340619	0.0018464832823644702	0.5071657521337467	-2.5768400609397673	0.8021552194710934	0.30324219559744614	-2.5547702077547605	0.4584712597869562	0.28594304510802204	-2.5735322055008427	0.07893628486402732	0.27817395311311915	-2.386365294524198	-0.003906665423105331	0.2708366780014188	-2.4267336459475732	-0.011166180166829354	0.21155605759856128	-2.618262336588653	-0.01706978823919172	0.29680735515056156	-2.538695520118864	1.5036756017936004	0.39225305320299586	-2.5425026134123274	1.7826724940664993	0.37667236225141193	-2.4136708075522098	1.6543772861877566	0.3991843718665257	-2.567511864245762	1.382389703413238	0.5759134447440706	-2.5678213513708394	1.0987566750338362	0.6252099758338108	-2.490679402207546	0.8540243820378459	0.6098360732202323	-2.570537810272664	1.398981988953069	0.20643010193972475	-2.5465808104880217	1.0951022595350024	0.15263484351840934	-2.488118989913478	0.8501406136554327	0.16869666701069402
2	0.06666666666666667	-2.5817667183784603	0.8357957126726648	0.38805217860596947	-2.561110145256182	0.7999722852728024	0.47661284998787945	-2.598053513843551	0.44851891589776044	0.5041606227503007	-2.6341981067114872	0.06985956845640927	0.5124644456751243	-2.3882450320454653	-0.010947169146072688	0.5445310315184192	-2.440559461158438	-0.01319677760392605	0.6082502352679646	-2.6065385069780143	0.00454135679766417	0.5032629608159395	-2.5791442927499246	0.8011443319010958	0.3026816924634482	-2.5542046551186455	0.4569843337970611	0.28599226390177107	-2.5728376632412173	0.07921405673760543	0.2793026229511779	-2.384245668953512	-0.002744166002172689	0.26976241857259237	-2.4274426198021124	-0.008943294662323078	0.20723185664726226	-2.6198747141091334	-0.017788435882877932	0.29709455769138465	-2.5382198988305382	1.5015550136347833	0.39440089567452	-2.522555257357683	1.773743990851025	0.2456003363996646	-2.415790754683527	1.6558396547897312	0.3814419544214412	-2.5622961470579035	1.382075674072148	0.5782959776787708	-2.5640748554225925	1.0974994027195002	0.6265005822019677	-2.4893591863445987	0.8559838921597691	0.6106452404191324	-2.5723801282800527	1.400358191217574	0.20540697105872519	-2.5456785484797235	1.0970492016382354	0.15102118056748018	-2.48727403772808	0.8559731225359959	0.16655727810369092
3	0.1	-2.582016014670023	0.8342602542287191	0.387216153814431	-2.5594029092161517	0.8002512244975015	0.47646609572129855	-2.5981814009952955	0.4479711152449135	0.5045269789212444	-2.634130395564612	0.07122684700229981	0.5137525277149603	-2.385331257253846	-0.006532448103743597	0.5398460452591999	-2.4350201085064485	-0.007466637999918262	0.6036509664089788	-2.605667458809964	0.00936026655073598	0.5041792270503043	-2.5794611690449005	0.7982815249192753	0.2985811727300203	-2.550254253876616	0.45716163450593755	0.283591221135801	-2.5709741176913905	0.07912056986225706	0.281620214257655	-2.38164036198456	-0.005001044733257781	0.2696380536461458	-2.4285513086109494	-0.013618757375102337	0.20858861463514228	-2.6178931729951453	-0.014310796855641145	0.2977431495689772	-2.537032049335904	1.5012639894425823	0.39175304155401586	-2.540176415733627	1.7800465271107078	0.36664940245962946	-2.4137346707673784	1.6561382280931587	0.3662214945004367	-2.5615614615702698	1.3832108891665935	0.5758662607804307	-2.563352493786366	1.096203694718635	0.6240147975035771	-2.4881719669850444	0.8541792299388714	0.6094236408520192	-2.57122105561881	1.4006149640617156	0.2011453623986221	-2.545476090073289	1.0940602514747617	0.14961593330790457	-2.4851541463612126	0.8541279387234784	0.16581640519620605
4	0.13333333333333333	-2.581193330678384	0.8333307231982607	0.3839817889582388	-2.5606057988716056	0.7996923237674144	0.4749058544161438	-2.600216276205361	0.44634581408529544	0.5033863775184776	-2.5724153939036842	0.08430937944961205	0.5105295030516999	-2.3806408079246126	-0.0022318369780783428	0.5435811185492264	-2.429545076390832	-0.004130034072762758	0.6063724653005388	-2.6055033437597603	0.011409178560769223	0.5054217806924908	-2.5782065107520618	0.7982170956939418	0.29598897994285767	-2.5462490122159243	0.45808398622139046	0.2824625372645388	-2.5721009140347557	0.078449938060155	0.28031358316874955	-2.3836852916782605	-0.004921604002698744	0.27271157594086065	-2.428456058871964	-0.014129550025378246	0.2082016912555171	-2.616396922734975	-0.012720916689264568	0.2966325904650632	-2.534199478899996	1.5011993676157291	0.3902118428760636	-2.5389475990236816	1.7802649060042064	0.3629344294429178	-2.4117732287062745	1.6552607567914968	0.3589533357358188	-2.5604245841588495	1.3848190870617196	0.575428682342328	-2.5607717393439042	1.0958757800435692	0.6233004205306893	-2.4867929860850575	0.8535714519178432	0.609200656538682	-2.5701070423602905	1.4015472679513645	0.19952661125047308	-2.543301780853169	1.0963971634263596	0.14853693049130653	-2.482565884560668	0.8556183600408431	0.16465565394698142
5	0.16666666666666666	-2.5817789451488777	0.8321554032901549	0.38213514427993667	-2.562053531533163	0.8010926706712383	0.4744366739187118	-2.6018658130096135	0.44597293395322063	0.504032160524412	-2.569748197963267	0.08492379405411317	0.5117319909012785	-2.3778105048481053	-0.003224802252749139	0.5395847065169982	-2.424463398966462	-0.002068637838426722	0.6027565930350495	-2.607023072545021	0.012615093736285523	0.5070379970338158	-2.578815601228732	0.7984089114998597	0.29340849089736026	-2.5446622690672323	0.4564637371240249	0.28242774329935716	-2.5719395678998667	0.07655335336986617	0.2815130723469921	-2.3832331563071363	-0.007806277704183843	0.27472197614674443	-2.4287287815122323	-0.014575920099743643	0.20861389290832447	-2.619465109695583	-0.01453208089300473	0.29555255552794246	-2.5338500324857045	1.5006346246519298	0.3863773342161846	-2.537783841055114	1.7804697375938907	0.3592384267265566	-2.410926411111182	1.6546306161602646	0.35520565387917113	-2.560625872944821	1.3842097674555514	0.5733819404868274	-2.5603761096876694	1.0953917307072978	0.6207832406438522	-2.48664870906718	0.8530407718586357	0.6085759461736766	-2.570960805115822	1.3985428967533406	0.19732102229598278	-2.5449933037471117	1.093681096965979	0.14696672271490857	-2.483562922924922	0.8517462799845865	0.16425572699650898
6	0.2	-2.5804979628613016	0.8325865982721544	0.3811227708833976	-2.564167499876765	0.8008995700201212	0.474987190172443	-2.6025402413893723	0.4454290154801134	0.5037422655980528	-2.5734156047868617	0.08511070517779262	0.5140298277696773	-2.3853457208185995	-0.004134454421350544	0.5395963761316773	-2.4326963645109383	-0.005392458817816826	0.6039345055556352	-2.6743550462223813	-0.017514402440871935	0.5028975927882028	-2.5773466178659734	0.7995789878275357	0.295133794800841	-2.541303975438042	0.45745438659726134	0.2825997797156087	-2.5730608044837675	0.07656619578967794	0.2803144118890119	-2.3824504925804795	-0.006853156295464063	0.27637583004286015	-2.428084603592459	-0.014682054901455943	0.2108352792592057	-2.620799069718824	-0.014483265451438361	0.29604928391275953	-2.5323562129318167	1.5009849422886379	0.38305449504750155	-2.536520236193638	1.7813965988914056	0.35849943071073603	-2.4093336909711214	1.6556035913280616	0.35455129898768634	-2.5590758765368546	1.3834152370736532	0.5687351742328463	-2.5583459676267006	1.096449040135264	0.6204834396193972	-2.485960112442261	0.8541305537552885	0.6098326889607674	-2.5707914280437714	1.399053765431923	0.19311698217097878	-2.546051535078557	1.0932309124124147	0.14446498857781243	-2.4835319212839653	0.8512730401250138	0.1621316918343498
7	0.23333333333333334	-2.580667858577053	0.8309001182511675	0.37956857951485745	-2.56319526193504	0.8003763115377468	0.47195273843461405	-2.599973511453383	0.44574291114206505	0.5020642363687561	-2.575465811654749	0.08715062798373681	0.515145088728748	-2.3952785242365318	-0.00309906379048738	0.5395924120821937	-2.446644313947867	-0.005853394592890223	0.6052044294760517	-2.6735899680521444	-0.018052926875773697	0.5047488237322992	-2.576389711750164	0.7970770439121476	0.2921888538796273	-2.538090104540307	0.4567701799308302	0.2817517810754725	-2.57217519920034	0.0763557836906804	0.2800678910600024	-2.38182657119136	-0.006402479784418661	0.27504440105729916	-2.42762799340259	-0.011992830249579652	0.21225174396872185	-2.6201384445659563	-0.014765393052554464	0.29629861770184046	-2.531425715446334	1.5001986050426805	0.3829905224066633	-2.534691887578387	1.7806649088935018	0.35236933385393354	-2.409265774206548	1.6556679206669518	0.3474621761789987	-2.592217611838321	1.399398093153158	0.5241918683393237	-2.5556168761019302	1.09548563523959	0.618223706664135	-2.484619150946891	0.854291380686034	0.6073525325763572	-2.567972068343813	1.3975595460322832	0.19098025365487237	-2.545072059582633	1.0936103202542145	0.14101341327942804	-2.4831764591853482	0.850620663587059	0.15745817638207876
8	0.26666666666666666	-2.5785010329134965	0.8325644247831243	0.3760599404263802	-2.561049232830584	0.7994435163923636	0.467756476565566	-2.598310029359311	0.44712015035337466	0.5026088645315394	-2.5767641097129053	0.08729081403948886	0.5157826657478152	-2.3986562941244243	-0.005499129202288449	0.5438126431299372	-2.4483669848780463	-0.0068057418402024655	0.6068956300115514	-2.675085590547105	-0.018463801704480292	0.5026190655545109	-2.574603209566077	0.7972830323139657	0.28773208536330336	-2.5384755270232198	0.45648280638833655	0.2799263677032554	-2.5720538996438957	0.07464578908967591	0.27929271891472135	-2.3818808217239726	-0.007773975119928474	0.27403588166889775	-2.4275517842256424	-0.012849350112814985	0.2123700989315805	-2.622507230412834	-0.014110990031556555	0.2927322078276639	-2.529358416908142	1.4983468357117302	0.38004380135008126	-2.5125839189003862	1.7728375434960761	0.21645312765420152	-2.409198730982056	1.6542319915141936	0.34240991272636384	-2.5887564575114523	1.3988499122845583	0.5180287975189564	-2.5538226649522313	1.0966749097943391	0.6140014784225034	-2.483207907024931	0.8550153140036761	0.6069973005464494	-2.567708643796367	1.396784865797863	0.18801657488751228	-2.545135361630117	1.0914203378011713	0.13750935804893744	-2.484441229517586	0.8484376502475958	0.1569456256014816
